<svg style="width:0; height:0; visibility: hidden"  fill="none" xmlns="http://www.w3.org/2000/svg">
    <symbol id="phone" viewBox="0 0 24 24">
        <g>
            <path fill-rule="evenodd" clip-rule="evenodd" d="M4.06359 1.25L7.81451 1.25C8.12689 1.25 8.40655 1.44361 8.51651 1.73599L9.97195 5.60588C10.0201 5.73398 10.0323 5.87281 10.0072 6.00735L9.27796 9.91931C10.1743 12.0273 11.6549 13.4439 14.1106 14.7146L17.9756 13.9657C18.1128 13.9391 18.2547 13.9514 18.3853 14.0012L22.2671 15.4804C22.5578 15.5912 22.75 15.87 22.75 16.1812L22.75 19.7655C22.75 21.391 21.3178 22.7101 19.6425 22.3456C16.5889 21.6811 10.9317 19.9923 6.96967 16.0303C3.17453 12.2352 1.90298 6.99252 1.47495 4.15869C1.23072 2.54172 2.52752 1.25 4.06359 1.25ZM7.2953 2.75L4.06359 2.75C3.34457 2.75 2.86556 3.32183 2.95813 3.93467C3.3709 6.66748 4.57852 11.5179 8.03033 14.9697C11.6787 18.6181 16.9825 20.2317 19.9615 20.8799C20.6158 21.0222 21.25 20.524 21.25 19.7655L21.25 16.698L18.051 15.479L14.1427 16.2363C13.9801 16.2678 13.8116 16.2446 13.6636 16.1703C10.7693 14.7176 8.89037 12.9954 7.80364 10.2785C7.75085 10.1466 7.73665 10.0023 7.7627 9.86255L8.49431 5.9381L7.2953 2.75Z" fill="currentColor"/>
        </g>
    </symbol>
    <symbol id="user" viewBox="0 0 24 24">
        <g>
            <path fill-rule="evenodd" clip-rule="evenodd" d="M12 12.75C8.54822 12.75 5.75 15.5482 5.75 19V20C5.75 20.4142 5.41421 20.75 5 20.75C4.58579 20.75 4.25 20.4142 4.25 20V19C4.25 14.7198 7.71979 11.25 12 11.25C16.2802 11.25 19.75 14.7198 19.75 19V20C19.75 20.4142 19.4142 20.75 19 20.75C18.5858 20.75 18.25 20.4142 18.25 20V19C18.25 15.5482 15.4518 12.75 12 12.75Z" fill="currentColor"/>
            <path fill-rule="evenodd" clip-rule="evenodd" d="M12 4.75C10.2051 4.75 8.75 6.20507 8.75 8C8.75 9.79493 10.2051 11.25 12 11.25C13.7949 11.25 15.25 9.79493 15.25 8C15.25 6.20507 13.7949 4.75 12 4.75ZM7.25 8C7.25 5.37665 9.37665 3.25 12 3.25C14.6234 3.25 16.75 5.37665 16.75 8C16.75 10.6234 14.6234 12.75 12 12.75C9.37665 12.75 7.25 10.6234 7.25 8Z" fill="currentColor"/>
        </g>
    </symbol>
    <symbol id="arrowL" viewBox="0 0 24 24">
        <g>
            <path fill-rule="evenodd" clip-rule="evenodd" d="M12.0303 18.5303C12.3232 18.2374 12.3232 17.7626 12.0303 17.4697L7.31066 12.75L18 12.75C18.4142 12.75 18.75 12.4142 18.75 12C18.75 11.5858 18.4142 11.25 18 11.25L7.31066 11.25L12.0303 6.53033C12.3232 6.23744 12.3232 5.76256 12.0303 5.46967C11.7374 5.17678 11.2626 5.17678 10.9697 5.46967L4.96967 11.4697C4.67678 11.7626 4.67678 12.2374 4.96967 12.5303L10.9697 18.5303C11.2626 18.8232 11.7374 18.8232 12.0303 18.5303Z" fill="currentColor"/>
        </g>
    </symbol>
    <symbol id="arrowR" viewBox="0 0 24 24">
        <g>
            <path fill-rule="evenodd" clip-rule="evenodd" d="M11.9697 5.46967C11.6768 5.76256 11.6768 6.23744 11.9697 6.53033L16.6893 11.25H6C5.58579 11.25 5.25 11.5858 5.25 12C5.25 12.4142 5.58579 12.75 6 12.75H16.6893L11.9697 17.4697C11.6768 17.7626 11.6768 18.2374 11.9697 18.5303C12.2626 18.8232 12.7374 18.8232 13.0303 18.5303L19.0303 12.5303C19.3232 12.2374 19.3232 11.7626 19.0303 11.4697L13.0303 5.46967C12.7374 5.17678 12.2626 5.17678 11.9697 5.46967Z" fill="currentColor"/>
        </g>
    </symbol>
</svg>
